<svg width="111" height="112" viewBox="0 0 111 112" fill="none" xmlns="http://www.w3.org/2000/svg">
<path d="M15.1315 56.3155C17.0462 48.5345 20.5546 41.156 28.3308 39.2218C35.2 37.5132 44.522 35.9078 55.3008 35.9078C71.9856 35.9078 85.1798 39.7543 91.189 41.8762C93.3672 42.6453 94.7244 44.7293 94.7244 47.0393V47.0393C94.7244 51.1647 90.5337 54.0992 86.5652 52.9725C79.1644 50.8714 67.5636 48.285 55.3008 48.285C34.6504 48.285 14.9652 56.9912 15.1315 56.3155V56.3155Z" fill="#F8F9FA"/>
<rect x="14" y="70.2563" width="78.8144" height="12.2298" rx="6.11491" transform="rotate(-60 14 70.2563)" fill="#F8F9FA"/>
<rect width="78.073" height="12.2298" rx="6.11491" transform="matrix(-0.5 -0.866025 -0.866025 0.5 97.1467 69.6132)" fill="#F8F9FA"/>
<path d="M14 101.579C14 92.0736 20.1564 83.6922 29.5395 82.1711C36.4878 81.0448 45.4319 80.0792 55.6761 80.0792C71.9574 80.0792 85.1234 82.5182 92.158 84.1652C95.5082 84.9496 97.7368 87.9755 97.7368 91.4163V91.4163C97.7368 98.3095 89.0096 102.461 82.9997 99.0852C75.475 94.8581 65.7864 90.9522 55.6761 90.9522C33.6444 90.9522 14 103.842 14 101.579V101.579Z" fill="#F8F9FA"/>
<path d="M83.7067 71.0756L70.118 47.5393C68.4294 44.6146 69.4315 40.8748 72.3562 39.1862C75.2809 37.4976 79.0207 38.4997 80.7093 41.4244L94.298 64.9607C95.9866 67.8854 94.9845 71.6252 92.0598 73.3138C89.1351 75.0024 85.3953 74.0003 83.7067 71.0756Z" fill="#F8F9FA"/>
<path d="M50.1872 7.29635L36.5985 30.8327C34.9099 33.7574 35.912 37.4972 38.8367 39.1858C41.7614 40.8744 45.5012 39.8723 47.1898 36.9476L60.7785 13.4113C62.4671 10.4866 61.465 6.74673 58.5403 5.05815C55.6156 3.36956 51.8757 4.37164 50.1872 7.29635Z" fill="#F8F9FA"/>
<path d="M91.1893 41.8762C85.944 40.0241 75.2244 36.858 61.4875 36.0829C58.075 35.8903 55.301 38.6786 55.301 42.0964C55.301 45.5143 58.0764 48.2685 61.4868 48.4946C71.3907 49.1513 80.4241 51.229 86.5655 52.9725C90.534 54.0992 94.7247 51.1647 94.7247 47.0393C94.7247 44.7293 93.3674 42.6453 91.1893 41.8762Z" fill="#F8F9FA"/>
</svg>
