<svg width="535" height="581" viewBox="0 0 535 581" fill="none" xmlns="http://www.w3.org/2000/svg">
<g clip-path="url(#clip0)">
<path d="M2.72876 121.605C2.72876 99.8245 20.3437 82.172 42.068 82.172H206.882C228.607 82.172 246.222 99.8245 246.222 121.605V539.796C246.222 561.576 228.607 579.228 206.882 579.228H42.068C20.3437 579.228 2.72876 561.576 2.72876 539.796V121.605Z" stroke="#999999" stroke-width="2"/>
<rect width="31.1188" height="4.04328" rx="2.02164" transform="matrix(1 0 0 -1 109.492 103.121)" fill="#999999"/>
<ellipse cx="150.984" cy="100.811" rx="1.81982" ry="1.82404" fill="#999999"/>
<path d="M153.442 100.811C153.442 102.175 152.339 103.276 150.984 103.276C149.629 103.276 148.526 102.175 148.526 100.811C148.526 99.4468 149.629 98.3451 150.984 98.3451C152.339 98.3451 153.442 99.4468 153.442 100.811Z" stroke="#999999" stroke-width="2"/>
<path d="M0 150.485C0 149.528 0.774021 148.753 1.72882 148.753V168.391C0.774021 168.391 0 167.616 0 166.659V150.485Z" fill="#999999"/>
<path d="M0 185.72C0 184.763 0.774021 183.987 1.72882 183.987V220.376C0.774021 220.376 0 219.601 0 218.644V185.72Z" fill="#999999"/>
<path d="M248.951 252.145C248.951 253.102 248.176 253.878 247.222 253.878L247.222 196.117C248.177 196.117 248.951 196.893 248.951 197.85L248.951 252.145Z" fill="#999999"/>
<path d="M0 231.351C0 230.394 0.774021 229.618 1.72882 229.618V266.008C0.774021 266.008 0 265.232 0 264.275V231.351Z" fill="#999999"/>
<rect x="87.0176" y="555.391" width="73.7631" height="2.31042" rx="1.15521" fill="#999999"/>
<path d="M62.102 100.522V101.1C62.102 108.668 68.2237 114.807 75.78 114.807H172.882C180.439 114.807 186.56 108.668 186.56 101.1V100.233C186.56 98.8692 187.663 97.7675 189.018 97.7675H211.205C221.789 97.7675 230.374 106.369 230.374 116.984V544.705C230.374 555.32 221.789 563.922 211.205 563.922H37.1572C26.5769 563.922 17.9941 555.328 17.9876 544.717L17.7244 117.285C17.7178 106.665 26.3045 98.0563 36.894 98.0563H59.6444C60.9995 98.0563 62.102 99.158 62.102 100.522Z" stroke="#999999" stroke-width="2"/>
</g>
<path d="M105 0H535V2L100.5 2.5L105 0Z" fill="#999999"/>
<rect x="211" y="578" width="324" height="2" fill="#999999"/>
<rect x="96.2954" y="6.64124" width="2.21369" height="75.2654" fill="#999999"/>
<path d="M535 18L535 20L96.5 20L96.5 18L535 18Z" fill="#999999"/>
<path fill-rule="evenodd" clip-rule="evenodd" d="M153.851 16.6026C157.519 16.6026 160.492 13.6293 160.492 9.9615C160.492 6.29374 157.519 3.32043 153.851 3.32043C150.183 3.32043 147.21 6.29374 147.21 9.9615C147.21 13.6293 150.183 16.6026 153.851 16.6026Z" fill="#999999"/>
<path fill-rule="evenodd" clip-rule="evenodd" d="M133.928 16.6026C137.596 16.6026 140.569 13.6293 140.569 9.9615C140.569 6.29374 137.596 3.32043 133.928 3.32043C130.261 3.32043 127.287 6.29374 127.287 9.9615C127.287 13.6293 130.261 16.6026 133.928 16.6026Z" fill="#999999"/>
<path fill-rule="evenodd" clip-rule="evenodd" d="M114.005 16.6026C117.673 16.6026 120.646 13.6293 120.646 9.9615C120.646 6.29374 117.673 3.32043 114.005 3.32043C110.337 3.32043 107.364 6.29374 107.364 9.9615C107.364 13.6293 110.337 16.6026 114.005 16.6026Z" fill="#999999"/>
<path d="M139.462 4.24914e-06V2.21369C139.462 2.21369 106.257 2.21369 103.49 2.21369C100.723 2.2137 98.5088 4.42739 98.5091 7.19449C98.5094 9.9616 98.5091 83.0134 98.5091 83.0134H96.2954C96.2954 83.0134 96.2957 7.74791 96.2954 7.19449C96.2951 6.64108 96.2951 4.98081 97.9554 2.76712C99.6158 0.553434 102.383 1.2034e-05 103.49 3.58941e-06C104.597 -4.85514e-06 139.462 4.24914e-06 139.462 4.24914e-06Z" fill="#999999"/>
<defs>
<clipPath id="clip0">
<rect width="248.951" height="499.056" fill="white" transform="translate(0 81.172)"/>
</clipPath>
</defs>
</svg>
