<svg width="127" height="127" viewBox="0 0 127 127" fill="none" xmlns="http://www.w3.org/2000/svg">
<g filter="url(#filter0_d)">
<path d="M66.214 82.9651H55.821V51.7861H66.214V56.9826C68.4293 54.1641 71.7889 52.4839 75.3728 52.4018C81.818 52.4376 87.0187 57.6825 87 64.1278V82.9651H76.607V65.4269C76.1913 62.5237 73.7015 60.3696 70.7687 60.3759C69.4859 60.4164 68.275 60.9781 67.4155 61.9312C66.556 62.8844 66.1221 64.1467 66.214 65.4269V82.9651ZM50.6245 82.9651H40.2314V51.7861H50.6245V82.9651ZM45.428 46.5895C42.558 46.5895 40.2314 44.263 40.2314 41.393C40.2314 38.5231 42.558 36.1965 45.428 36.1965C48.2979 36.1965 50.6245 38.5231 50.6245 41.393C50.6245 42.7712 50.077 44.093 49.1024 45.0675C48.1279 46.0421 46.8062 46.5895 45.428 46.5895Z" fill="#F8F9FA"/>
</g>
<defs>
<filter id="filter0_d" x="0.231445" y="0.196533" width="126.769" height="126.769" filterUnits="userSpaceOnUse" color-interpolation-filters="sRGB">
<feFlood flood-opacity="0" result="BackgroundImageFix"/>
<feColorMatrix in="SourceAlpha" type="matrix" values="0 0 0 0 0 0 0 0 0 0 0 0 0 0 0 0 0 0 127 0" result="hardAlpha"/>
<feOffset dy="4"/>
<feGaussianBlur stdDeviation="20"/>
<feComposite in2="hardAlpha" operator="out"/>
<feColorMatrix type="matrix" values="0 0 0 0 0 0 0 0 0 0 0 0 0 0 0 0 0 0 0.25 0"/>
<feBlend mode="normal" in2="BackgroundImageFix" result="effect1_dropShadow"/>
<feBlend mode="normal" in="SourceGraphic" in2="effect1_dropShadow" result="shape"/>
</filter>
</defs>
</svg>
