<svg width="132" height="132" viewBox="0 0 132 132" fill="none" xmlns="http://www.w3.org/2000/svg">
<g filter="url(#filter0_d)">
<path d="M65.9233 36.5983C53.2098 36.5966 42.3722 45.8168 40.3367 58.3663C38.3012 70.9157 45.6688 83.0888 57.731 87.1057C59.0301 87.3396 59.4952 86.5419 59.4952 85.856C59.4952 85.2402 59.4744 83.6085 59.4666 81.4389C52.2564 82.9979 50.7339 77.9625 50.7339 77.9625C50.2592 76.3956 49.2388 75.0507 47.8576 74.1716C45.5192 72.5633 48.0369 72.5997 48.0369 72.5997C49.7015 72.8279 51.1666 73.8142 52.0044 75.2707C52.7136 76.5601 53.9083 77.5128 55.3232 77.9173C56.738 78.3218 58.2559 78.1444 59.5394 77.4246C59.66 76.1099 60.2449 74.8811 61.1892 73.9586C55.4367 73.3064 49.388 71.0823 49.388 61.1492C49.3561 58.58 50.3101 56.0963 52.0538 54.2092C51.2648 51.9729 51.3577 49.52 52.3136 47.3498C52.3136 47.3498 54.4883 46.6509 59.438 50.0027C63.6832 48.8387 68.1634 48.8387 72.4085 50.0027C77.3608 46.6483 79.5329 47.3498 79.5329 47.3498C80.4932 49.519 80.5862 51.9736 79.7927 54.2092C81.5428 56.0962 82.4961 58.5863 82.4533 61.1596C82.4533 71.1187 76.3994 73.3064 70.6261 73.9482C71.8715 75.2215 72.5102 76.9682 72.3799 78.7445C72.3799 82.2106 72.3487 85.0063 72.3487 85.856C72.3487 86.5497 72.8112 87.3551 74.1337 87.1005C86.1909 83.0767 93.5506 70.903 91.5109 58.3569C89.4712 45.8108 78.6341 36.5954 65.9233 36.5983Z" fill="#F8F9FA"/>
</g>
<defs>
<filter id="filter0_d" x="0" y="0.598267" width="131.849" height="130.55" filterUnits="userSpaceOnUse" color-interpolation-filters="sRGB">
<feFlood flood-opacity="0" result="BackgroundImageFix"/>
<feColorMatrix in="SourceAlpha" type="matrix" values="0 0 0 0 0 0 0 0 0 0 0 0 0 0 0 0 0 0 127 0" result="hardAlpha"/>
<feOffset dy="4"/>
<feGaussianBlur stdDeviation="20"/>
<feComposite in2="hardAlpha" operator="out"/>
<feColorMatrix type="matrix" values="0 0 0 0 0 0 0 0 0 0 0 0 0 0 0 0 0 0 0.25 0"/>
<feBlend mode="normal" in2="BackgroundImageFix" result="effect1_dropShadow"/>
<feBlend mode="normal" in="SourceGraphic" in2="effect1_dropShadow" result="shape"/>
</filter>
</defs>
</svg>
