<svg width="133" height="132" viewBox="0 0 133 132" fill="none" xmlns="http://www.w3.org/2000/svg">
<g filter="url(#filter0_d)">
<path d="M66.2733 87.9651C59.1753 87.9651 58.3386 87.9276 55.5686 87.8066C53.4086 87.7357 51.2765 87.2972 49.2642 86.5101C45.7825 85.1571 43.0293 82.4069 41.6757 78.9297C40.9178 76.9129 40.5089 74.7822 40.4668 72.6285C40.3052 69.8683 40.3052 68.9636 40.3052 61.9307C40.3052 54.8228 40.3427 53.993 40.4668 51.2415C40.5099 49.0907 40.9187 46.9629 41.6757 44.949C43.0279 41.4671 45.7855 38.7146 49.2728 37.3657C51.2887 36.6056 53.4201 36.1963 55.5744 36.1556C58.3299 36 59.2359 36 66.2733 36C73.4289 36 74.2513 36.0375 76.9779 36.1556C79.1379 36.1967 81.2749 36.6059 83.2968 37.3657C86.7832 38.7161 89.5402 41.4681 90.8939 44.949C91.6647 46.9923 92.0756 49.1533 92.1087 51.3365C92.2702 54.0967 92.2702 54.9985 92.2702 62.0286C92.2702 69.0587 92.2298 69.9807 92.1087 72.7092C92.0657 74.8649 91.6559 76.9976 90.8968 79.0161C89.5397 82.4957 86.7825 85.2469 83.2968 86.5994C81.2778 87.3548 79.1451 87.763 76.9895 87.8066C74.2339 87.9651 73.3308 87.9651 66.2733 87.9651ZM66.1752 40.5609C59.1176 40.5609 58.3847 40.5955 55.6292 40.7194C53.9846 40.7411 52.3558 41.0442 50.8136 41.6154C48.5364 42.4856 46.7344 44.2776 45.8537 46.548C45.2772 48.1047 44.9737 49.749 44.9564 51.4086C44.8034 54.2004 44.8034 54.9323 44.8034 61.9307C44.8034 68.8455 44.8294 69.6839 44.9564 72.4585C44.9822 74.1014 45.2856 75.7281 45.8537 77.2701C46.7357 79.539 48.5373 81.3297 50.8136 82.1998C52.3547 82.7748 53.9842 83.078 55.6292 83.0959C58.4223 83.2572 59.158 83.2572 66.1752 83.2572C73.2529 83.2572 73.9858 83.2226 76.7182 83.0959C78.364 83.0759 79.9941 82.7727 81.5368 82.1998C83.8002 81.3222 85.5904 79.5355 86.4707 77.2759C87.046 75.7179 87.3495 74.0729 87.368 72.4124H87.3998C87.5238 69.658 87.5238 68.9233 87.5238 61.8846C87.5238 54.8458 87.4921 54.1054 87.368 51.3538C87.3422 49.7129 87.0388 48.088 86.4707 46.548C85.5925 44.2851 83.802 42.495 81.5368 41.6154C79.9944 41.0413 78.3641 40.7382 76.7182 40.7194C73.9281 40.5609 73.1981 40.5609 66.1752 40.5609ZM66.2733 75.2389C60.8777 75.2424 56.0113 71.9996 53.9438 67.023C51.8763 62.0464 53.0148 56.3162 56.8285 52.5048C60.6421 48.6933 66.3796 47.5515 71.3652 49.6117C76.3508 51.6719 79.6024 56.5284 79.6036 61.9163C79.5956 69.2663 73.634 75.2246 66.2733 75.2389ZM66.2733 53.2669C61.4927 53.2669 57.6172 57.1368 57.6172 61.9105C57.6172 66.6842 61.4927 70.5541 66.2733 70.5541C71.0539 70.5541 74.9293 66.6842 74.9293 61.9105C74.9182 57.1414 71.0493 53.278 66.2733 53.2669ZM80.1229 51.2127C78.4074 51.2063 77.0209 49.8141 77.0241 48.101C77.0273 46.3879 78.4189 45.0008 80.1345 45.0008C81.85 45.0008 83.2417 46.3879 83.2449 48.101C83.2456 48.9275 82.9168 49.7203 82.331 50.3042C81.7452 50.888 80.9506 51.215 80.1229 51.2127Z" fill="#F8F9FA"/>
</g>
<defs>
<filter id="filter0_d" x="0.305176" y="0" width="131.965" height="131.965" filterUnits="userSpaceOnUse" color-interpolation-filters="sRGB">
<feFlood flood-opacity="0" result="BackgroundImageFix"/>
<feColorMatrix in="SourceAlpha" type="matrix" values="0 0 0 0 0 0 0 0 0 0 0 0 0 0 0 0 0 0 127 0" result="hardAlpha"/>
<feOffset dy="4"/>
<feGaussianBlur stdDeviation="20"/>
<feComposite in2="hardAlpha" operator="out"/>
<feColorMatrix type="matrix" values="0 0 0 0 0 0 0 0 0 0 0 0 0 0 0 0 0 0 0.25 0"/>
<feBlend mode="normal" in2="BackgroundImageFix" result="effect1_dropShadow"/>
<feBlend mode="normal" in="SourceGraphic" in2="effect1_dropShadow" result="shape"/>
</filter>
</defs>
</svg>
