<svg width="133" height="122" viewBox="0 0 133 122" fill="none" xmlns="http://www.w3.org/2000/svg">
<g filter="url(#filter0_d)">
<path d="M86.7697 42.9481C88.9967 41.6369 90.6629 39.5723 91.4574 37.1398C89.3649 38.3626 87.0754 39.224 84.6879 39.6867C81.3779 36.2383 76.1335 35.3991 71.8852 37.6381C67.6369 39.877 65.4364 44.6399 66.5133 49.2653C57.9418 48.8415 49.9559 44.8538 44.5428 38.2946C41.7179 43.0935 43.1615 49.2281 47.8419 52.3138C46.1494 52.2603 44.4944 51.809 43.015 50.9976C43.015 51.0416 43.015 51.0856 43.015 51.1297C43.016 56.1285 46.5932 60.4344 51.5682 61.4251C49.9983 61.8458 48.3516 61.9077 46.7538 61.6062C48.1529 65.8811 52.1534 68.8098 56.713 68.8972C52.9366 71.8163 48.2728 73.3994 43.4721 73.3917C42.6212 73.3929 41.7709 73.3447 40.9258 73.2473C45.8008 76.3326 51.4747 77.9702 57.2695 77.9644C65.3314 78.019 73.0792 74.8888 78.7798 69.274C84.4803 63.6592 87.658 56.0284 87.6019 48.0885C87.6019 47.6334 87.5912 47.1808 87.5696 46.7306C89.6575 45.2445 91.4595 43.4035 92.8908 41.2942C90.9457 42.1433 88.8825 42.7008 86.7697 42.9481Z" fill="#F8F9FA"/>
</g>
<defs>
<filter id="filter0_d" x="0.925781" y="0.393066" width="131.965" height="121.572" filterUnits="userSpaceOnUse" color-interpolation-filters="sRGB">
<feFlood flood-opacity="0" result="BackgroundImageFix"/>
<feColorMatrix in="SourceAlpha" type="matrix" values="0 0 0 0 0 0 0 0 0 0 0 0 0 0 0 0 0 0 127 0" result="hardAlpha"/>
<feOffset dy="4"/>
<feGaussianBlur stdDeviation="20"/>
<feComposite in2="hardAlpha" operator="out"/>
<feColorMatrix type="matrix" values="0 0 0 0 0 0 0 0 0 0 0 0 0 0 0 0 0 0 0.25 0"/>
<feBlend mode="normal" in2="BackgroundImageFix" result="effect1_dropShadow"/>
<feBlend mode="normal" in="SourceGraphic" in2="effect1_dropShadow" result="shape"/>
</filter>
</defs>
</svg>
