<svg width="62" height="63" viewBox="0 0 62 63" fill="none" xmlns="http://www.w3.org/2000/svg">
<g filter="url(#filter0_d)">
<ellipse cx="31" cy="28.5" rx="23" ry="23.5" fill="#2B2B2B"/>
</g>
<g filter="url(#filter1_d)">
<path d="M31.0002 3C17.747 3 7 14.0169 7 27.6076C7 38.4799 13.8768 47.7039 23.4128 50.9577C24.6123 51.1855 25.0526 50.4239 25.0526 49.7739C25.0526 49.1872 25.0304 47.2487 25.02 45.1925C18.3431 46.6811 16.9342 42.2891 16.9342 42.2891C15.8425 39.4448 14.2695 38.6885 14.2695 38.6885C12.0919 37.1613 14.4336 37.1926 14.4336 37.1926C16.8436 37.3662 18.1126 39.7285 18.1126 39.7285C20.2532 43.4904 23.7272 42.4028 25.0967 41.7741C25.3121 40.1836 25.9341 39.0981 26.6205 38.4836C21.2897 37.8613 15.6859 35.7513 15.6859 26.3224C15.6859 23.6358 16.6234 21.4406 18.1587 19.7174C17.9095 19.0976 17.088 16.5947 18.3912 13.2052C18.3912 13.2052 20.4066 12.5439 24.993 15.7276C26.9074 15.1824 28.9606 14.9089 31.0002 14.8996C33.0398 14.9089 35.0946 15.1824 37.0126 15.7276C41.5934 12.5439 43.606 13.2052 43.606 13.2052C44.9124 16.5947 44.0905 19.0976 43.8413 19.7174C45.3801 21.4406 46.3113 23.6358 46.3113 26.3224C46.3113 35.7737 40.6968 37.8548 35.3525 38.464C36.2133 39.2276 36.9804 40.7252 36.9804 43.021C36.9804 46.3135 36.9526 48.9634 36.9526 49.7739C36.9526 50.4288 37.3846 51.1961 38.6011 50.9544C48.132 47.697 55 38.4762 55 27.6076C55 14.0169 44.2546 3 31.0002 3" fill="white"/>
</g>
<defs>
<filter id="filter0_d" x="1" y="2" width="60" height="61" filterUnits="userSpaceOnUse" color-interpolation-filters="sRGB">
<feFlood flood-opacity="0" result="BackgroundImageFix"/>
<feColorMatrix in="SourceAlpha" type="matrix" values="0 0 0 0 0 0 0 0 0 0 0 0 0 0 0 0 0 0 127 0" result="hardAlpha"/>
<feOffset dy="4"/>
<feGaussianBlur stdDeviation="3.5"/>
<feComposite in2="hardAlpha" operator="out"/>
<feColorMatrix type="matrix" values="0 0 0 0 0 0 0 0 0 0 0 0 0 0 0 0 0 0 0.15 0"/>
<feBlend mode="normal" in2="BackgroundImageFix" result="effect1_dropShadow"/>
<feBlend mode="normal" in="SourceGraphic" in2="effect1_dropShadow" result="shape"/>
</filter>
<filter id="filter1_d" x="0" y="0" width="62" height="62" filterUnits="userSpaceOnUse" color-interpolation-filters="sRGB">
<feFlood flood-opacity="0" result="BackgroundImageFix"/>
<feColorMatrix in="SourceAlpha" type="matrix" values="0 0 0 0 0 0 0 0 0 0 0 0 0 0 0 0 0 0 127 0" result="hardAlpha"/>
<feOffset dy="4"/>
<feGaussianBlur stdDeviation="3.5"/>
<feComposite in2="hardAlpha" operator="out"/>
<feColorMatrix type="matrix" values="0 0 0 0 0 0 0 0 0 0 0 0 0 0 0 0 0 0 0.15 0"/>
<feBlend mode="normal" in2="BackgroundImageFix" result="effect1_dropShadow"/>
<feBlend mode="normal" in="SourceGraphic" in2="effect1_dropShadow" result="shape"/>
</filter>
</defs>
</svg>
