<svg width="78" height="78" viewBox="0 0 78 78" fill="none" xmlns="http://www.w3.org/2000/svg">
<g filter="url(#filter0_d)">
<path d="M38.9861 60C32.1566 60 31.3515 59.964 28.6863 59.8475C26.6079 59.7793 24.5565 59.3574 22.6202 58.6C19.2702 57.2982 16.6212 54.652 15.3187 51.3063C14.5894 49.3658 14.1961 47.3156 14.1555 45.2434C14 42.5876 14 41.7171 14 34.9501C14 28.111 14.0361 27.3126 14.1555 24.6651C14.1969 22.5957 14.5903 20.5484 15.3187 18.6106C16.6197 15.2604 19.273 12.6119 22.6285 11.314C24.5681 10.5827 26.619 10.1889 28.6918 10.1497C31.3431 10 32.2149 10 38.9861 10C45.8712 10 46.6624 10.036 49.2859 10.1497C51.3642 10.1893 53.4204 10.583 55.3659 11.314C58.7204 12.6134 61.3732 15.2614 62.6757 18.6106C63.4173 20.5766 63.8128 22.6559 63.8445 24.7566C64 27.4124 64 28.2801 64 35.0444C64 41.8086 63.9611 42.6957 63.8445 45.321C63.8032 47.3952 63.4089 49.4473 62.6785 51.3894C61.3727 54.7375 58.7198 57.3846 55.3659 58.686C53.4232 59.4128 51.3712 59.8056 49.2971 59.8475C46.6458 60 45.7768 60 38.9861 60ZM38.8917 14.3884C32.1011 14.3884 31.3959 14.4217 28.7446 14.5409C27.1621 14.5619 25.5949 14.8535 24.111 15.4031C21.9199 16.2403 20.1861 17.9646 19.3387 20.1491C18.784 21.647 18.492 23.229 18.4753 24.8259C18.3282 27.5122 18.3282 28.2163 18.3282 34.9501C18.3282 41.6035 18.3531 42.4102 18.4753 45.0798C18.5001 46.6606 18.792 48.2258 19.3387 49.7095C20.1873 51.8926 21.9209 53.6155 24.111 54.4528C25.5939 55.006 27.1617 55.2978 28.7446 55.3149C31.432 55.4702 32.1399 55.4702 38.8917 55.4702C45.7018 55.4702 46.407 55.4369 49.0361 55.3149C50.6197 55.2957 52.1881 55.004 53.6724 54.4528C55.8503 53.6083 57.5728 51.8892 58.4198 49.715C58.9733 48.2159 59.2654 46.6331 59.2832 45.0355H59.3137C59.4331 42.3852 59.4331 41.6783 59.4331 34.9057C59.4331 28.1332 59.4025 27.4207 59.2832 24.7732C59.2583 23.1943 58.9664 21.6309 58.4198 20.1491C57.5747 17.9718 55.8519 16.2494 53.6724 15.4031C52.1884 14.8507 50.6198 14.559 49.0361 14.5409C46.3515 14.3884 45.6491 14.3884 38.8917 14.3884ZM38.9861 47.755C33.7945 47.7584 29.1122 44.6383 27.1229 39.8499C25.1336 35.0615 26.2291 29.5479 29.8985 25.8806C33.5679 22.2133 39.0885 21.1146 43.8855 23.0969C48.6826 25.0793 51.8112 29.7521 51.8123 34.9362C51.8047 42.0084 46.0685 47.7413 38.9861 47.755ZM38.9861 26.614C34.3863 26.614 30.6574 30.3375 30.6574 34.9307C30.6574 39.5239 34.3863 43.2474 38.9861 43.2474C43.5859 43.2474 47.3148 39.5239 47.3148 34.9307C47.3041 30.3419 43.5815 26.6247 38.9861 26.614ZM52.312 24.6374C50.6614 24.6313 49.3273 23.2917 49.3304 21.6434C49.3334 19.9951 50.6725 18.6605 52.3231 18.6605C53.9738 18.6605 55.3129 19.9951 55.3159 21.6434C55.3167 22.4386 55.0003 23.2014 54.4366 23.7632C53.8729 24.325 53.1084 24.6396 52.312 24.6374Z" fill="#F8F9FA"/>
</g>
<defs>
<filter id="filter0_d" x="0" y="0" width="78" height="78" filterUnits="userSpaceOnUse" color-interpolation-filters="sRGB">
<feFlood flood-opacity="0" result="BackgroundImageFix"/>
<feColorMatrix in="SourceAlpha" type="matrix" values="0 0 0 0 0 0 0 0 0 0 0 0 0 0 0 0 0 0 127 0" result="hardAlpha"/>
<feOffset dy="4"/>
<feGaussianBlur stdDeviation="7"/>
<feComposite in2="hardAlpha" operator="out"/>
<feColorMatrix type="matrix" values="0 0 0 0 0 0 0 0 0 0 0 0 0 0 0 0 0 0 0.35 0"/>
<feBlend mode="normal" in2="BackgroundImageFix" result="effect1_dropShadow"/>
<feBlend mode="normal" in="SourceGraphic" in2="effect1_dropShadow" result="shape"/>
</filter>
</defs>
</svg>
