<svg width="80" height="78" viewBox="0 0 80 78" fill="none" xmlns="http://www.w3.org/2000/svg">
<g filter="url(#filter0_d)">
<path d="M39.9987 10C27.2483 9.99839 16.3791 19.1182 14.3377 31.531C12.2962 43.9438 19.6853 55.9843 31.7826 59.9575C33.0855 60.1888 33.5519 59.3998 33.5519 58.7214C33.5519 58.1123 33.5311 56.4984 33.5232 54.3524C26.2921 55.8944 24.7651 50.9138 24.7651 50.9138C24.2891 49.364 23.2657 48.0338 21.8805 47.1643C19.5352 45.5734 22.0603 45.6094 22.0603 45.6094C23.7298 45.8352 25.1991 46.8108 26.0393 48.2513C26.7506 49.5267 27.9488 50.4691 29.3678 50.8692C30.7868 51.2692 32.309 51.0938 33.5962 50.3818C33.7172 49.0815 34.3038 47.8661 35.2509 46.9535C29.4816 46.3085 23.4153 44.1086 23.4153 34.2836C23.3833 31.7424 24.3401 29.2858 26.0889 27.4192C25.2976 25.2073 25.3908 22.7811 26.3494 20.6345C26.3494 20.6345 28.5305 19.9432 33.4946 23.2584C37.7521 22.1071 42.2453 22.1071 46.5028 23.2584C51.4695 19.9406 53.6479 20.6345 53.6479 20.6345C54.611 22.7801 54.7043 25.208 53.9085 27.4192C55.6637 29.2856 56.6197 31.7487 56.5769 34.2939C56.5769 44.1445 50.5053 46.3085 44.7152 46.9432C45.9642 48.2027 46.6048 49.9304 46.4741 51.6874C46.4741 55.1157 46.4429 57.881 46.4429 58.7214C46.4429 59.4076 46.9067 60.2042 48.2331 59.9524C60.3253 55.9724 67.7064 43.9312 65.6608 31.5217C63.6152 19.1122 52.7465 9.99712 39.9987 10Z" fill="#F8F9FA"/>
</g>
<defs>
<filter id="filter0_d" x="0" y="0" width="80" height="78" filterUnits="userSpaceOnUse" color-interpolation-filters="sRGB">
<feFlood flood-opacity="0" result="BackgroundImageFix"/>
<feColorMatrix in="SourceAlpha" type="matrix" values="0 0 0 0 0 0 0 0 0 0 0 0 0 0 0 0 0 0 127 0" result="hardAlpha"/>
<feOffset dy="4"/>
<feGaussianBlur stdDeviation="7"/>
<feComposite in2="hardAlpha" operator="out"/>
<feColorMatrix type="matrix" values="0 0 0 0 0 0 0 0 0 0 0 0 0 0 0 0 0 0 0.35 0"/>
<feBlend mode="normal" in2="BackgroundImageFix" result="effect1_dropShadow"/>
<feBlend mode="normal" in="SourceGraphic" in2="effect1_dropShadow" result="shape"/>
</filter>
</defs>
</svg>
