<svg width="91" height="78" viewBox="0 0 91 78" fill="none" xmlns="http://www.w3.org/2000/svg">
<g filter="url(#filter0_d)">
<path d="M69.579 17.8839C72.2789 16.3069 74.299 13.8238 75.2622 10.8981C72.7253 12.3688 69.9496 13.4049 67.0552 13.9614C63.0422 9.81381 56.6842 8.80448 51.5338 11.4974C46.3833 14.1903 43.7155 19.9188 45.0211 25.4819C34.6294 24.9721 24.9476 20.176 18.3851 12.287C14.9603 18.0588 16.7104 25.4371 22.3847 29.1484C20.3329 29.084 18.3265 28.5412 16.5329 27.5653C16.5329 27.6182 16.5329 27.6712 16.5329 27.7242C16.5341 33.7365 20.8709 38.9153 26.9024 40.1068C24.9991 40.6128 23.0028 40.6872 21.0656 40.3246C22.7618 45.4662 27.6118 48.9886 33.1397 49.0937C28.5614 52.6047 22.9072 54.5087 17.0871 54.4993C16.0554 54.5008 15.0246 54.4428 14 54.3257C19.9102 58.0365 26.789 60.0061 33.8144 59.9992C43.5883 60.0648 52.9813 56.3 59.8924 49.5469C66.8035 42.7939 70.6559 33.6161 70.588 24.0665C70.588 23.5191 70.5749 22.9747 70.5488 22.4333C73.08 20.6459 75.2647 18.4317 77 15.8947C74.6418 16.916 72.1404 17.5865 69.579 17.8839Z" fill="#F8F9FA"/>
</g>
<defs>
<filter id="filter0_d" x="0" y="0" width="91" height="78" filterUnits="userSpaceOnUse" color-interpolation-filters="sRGB">
<feFlood flood-opacity="0" result="BackgroundImageFix"/>
<feColorMatrix in="SourceAlpha" type="matrix" values="0 0 0 0 0 0 0 0 0 0 0 0 0 0 0 0 0 0 127 0" result="hardAlpha"/>
<feOffset dy="4"/>
<feGaussianBlur stdDeviation="7"/>
<feComposite in2="hardAlpha" operator="out"/>
<feColorMatrix type="matrix" values="0 0 0 0 0 0 0 0 0 0 0 0 0 0 0 0 0 0 0.35 0"/>
<feBlend mode="normal" in2="BackgroundImageFix" result="effect1_dropShadow"/>
<feBlend mode="normal" in="SourceGraphic" in2="effect1_dropShadow" result="shape"/>
</filter>
</defs>
</svg>
