<svg width="72" height="78" viewBox="0 0 72 78" fill="none" xmlns="http://www.w3.org/2000/svg">
<g filter="url(#filter0_d)">
<path d="M55.7506 60H14V42.2222H18.62V55.5556H51.1306V42.2222H55.7506V60ZM46.5106 51.1111H23.2401V46.6667H46.499V51.1111H46.5106ZM46.5106 45.5556L23.8176 41.0028L24.7935 36.6917L47.4923 41.2528L46.5019 45.5556H46.5106ZM47.7782 39.8972L26.7571 30.4528V30.4361L28.7032 26.3889L49.7273 35.8333L47.784 39.9L47.7782 39.8972ZM50.4434 34.7722L32.6274 20.4944H32.6534L35.5784 17.1222L53.3713 31.3889L50.4347 34.775L50.4434 34.7722ZM54.2202 30.6056L40.3399 12.6917L44.1226 10L58 27.9194L54.2116 30.6167L54.2202 30.6056Z" fill="#F8F9FA"/>
</g>
<defs>
<filter id="filter0_d" x="0" y="0" width="72" height="78" filterUnits="userSpaceOnUse" color-interpolation-filters="sRGB">
<feFlood flood-opacity="0" result="BackgroundImageFix"/>
<feColorMatrix in="SourceAlpha" type="matrix" values="0 0 0 0 0 0 0 0 0 0 0 0 0 0 0 0 0 0 127 0" result="hardAlpha"/>
<feOffset dy="4"/>
<feGaussianBlur stdDeviation="7"/>
<feComposite in2="hardAlpha" operator="out"/>
<feColorMatrix type="matrix" values="0 0 0 0 0 0 0 0 0 0 0 0 0 0 0 0 0 0 0.35 0"/>
<feBlend mode="normal" in2="BackgroundImageFix" result="effect1_dropShadow"/>
<feBlend mode="normal" in="SourceGraphic" in2="effect1_dropShadow" result="shape"/>
</filter>
</defs>
</svg>
