<svg width="345" height="919" viewBox="0 0 345 919" fill="none" xmlns="http://www.w3.org/2000/svg">
<g clip-path="url(#clip0)">
<path d="M55.4742 841.701L55.4742 81.0526C55.4742 68.257 62.2794 56.6376 73.3514 48.2009C84.4237 39.7639 99.7419 34.5311 116.682 34.5311L1456.29 34.5311C1473.23 34.5311 1488.55 39.7638 1499.63 48.2008C1510.7 56.6375 1517.5 68.257 1517.5 81.0526V841.701C1517.5 854.496 1510.7 866.116 1499.63 874.553C1488.55 882.99 1473.23 888.222 1456.29 888.222H116.682C99.742 888.222 84.4238 882.99 73.3514 874.553C62.2795 866.116 55.4742 854.496 55.4742 841.701Z" stroke="#CCCCCC" stroke-width="0.995254"/>
<path d="M60.4498 837.909L60.4498 84.8444C60.4498 72.0488 67.255 60.4294 78.327 51.9927C89.3993 43.5556 104.717 38.3229 121.658 38.3229L1452.31 38.3228C1469.25 38.3228 1484.57 43.5556 1495.64 51.9926C1506.72 60.4293 1513.52 72.0487 1513.52 84.8443V837.909C1513.52 850.704 1506.72 862.324 1495.64 870.761C1484.57 879.198 1469.25 884.43 1452.31 884.43H121.658C104.718 884.43 89.3994 879.198 78.327 870.761C67.2551 862.324 60.4498 850.705 60.4498 837.909Z" stroke="#CCCCCC" stroke-width="0.995254"/>
<rect x="54.9766" y="84.8445" width="46.2608" height="4.97627" transform="rotate(90 54.9766 84.8445)" fill="#CCCCCC"/>
<path d="M209.241 34.7919L156.492 34.7919L156.492 31L209.241 31V34.7919Z" fill="#CCCCCC"/>
<path d="M271.942 34.7919L219.193 34.7919L219.193 31L271.942 31V34.7919Z" fill="#CCCCCC"/>
<path d="M104 92.721L104 828.803C104 835.283 107.449 841.08 112.887 845.224C118.325 849.367 125.792 851.9 134 851.9H1442C1450.21 851.9 1457.67 849.367 1463.11 845.223C1468.55 841.08 1472 835.283 1472 828.803V92.721C1472 86.2403 1468.55 80.4439 1463.11 76.3002C1457.67 72.157 1450.21 69.6233 1442 69.6233L134 69.6233C125.792 69.6233 118.325 72.1571 112.887 76.3002C107.449 80.444 104 86.2404 104 92.721Z" stroke="#CCCCCC" stroke-width="2"/>
</g>
<defs>
<clipPath id="clip0">
<rect width="345" height="919" fill="white"/>
</clipPath>
</defs>
</svg>
