<svg width="348" height="581" viewBox="0 0 348 581" fill="none" xmlns="http://www.w3.org/2000/svg">
<g clip-path="url(#clip0)">
<path d="M42.068 82.1719H206.882C228.607 82.1719 246.222 99.8244 246.222 121.605V539.796C246.222 561.576 228.607 579.228 206.882 579.228H42.068C20.3437 579.228 2.72876 561.576 2.72876 539.796V121.605C2.72876 99.8244 20.3437 82.1719 42.068 82.1719Z" stroke="#CCCCCC" stroke-width="2"/>
<rect width="31.1188" height="4.04328" rx="2.02164" transform="matrix(1 0 0 -1 109.492 103.121)" fill="#CCCCCC"/>
<ellipse cx="150.984" cy="100.811" rx="1.81982" ry="1.82404" fill="#CCCCCC"/>
<path d="M153.442 100.811C153.442 102.175 152.339 103.276 150.984 103.276C149.629 103.276 148.526 102.175 148.526 100.811C148.526 99.4467 149.629 98.345 150.984 98.345C152.339 98.345 153.442 99.4467 153.442 100.811Z" stroke="#CCCCCC" stroke-width="2"/>
<path d="M0 150.485C0 149.528 0.774021 148.752 1.72882 148.752V168.391C0.774021 168.391 0 167.615 0 166.658V150.485Z" fill="#CCCCCC"/>
<path d="M0 185.72C0 184.763 0.774021 183.987 1.72882 183.987V220.376C0.774021 220.376 0 219.601 0 218.644V185.72Z" fill="#CCCCCC"/>
<path d="M248.951 252.145C248.951 253.102 248.176 253.878 247.222 253.878L247.222 196.117C248.177 196.117 248.951 196.893 248.951 197.85L248.951 252.145Z" fill="#CCCCCC"/>
<path d="M0 231.351C0 230.394 0.774021 229.618 1.72882 229.618V266.008C0.774021 266.008 0 265.232 0 264.275V231.351Z" fill="#CCCCCC"/>
<rect x="87.0176" y="555.391" width="73.7631" height="2.31042" rx="1.15521" fill="#CCCCCC"/>
<path d="M62.102 100.522V101.099C62.102 108.668 68.2237 114.807 75.78 114.807H172.882C180.439 114.807 186.56 108.668 186.56 101.099V100.233C186.56 98.8691 187.663 97.7673 189.018 97.7673H211.205C221.789 97.7673 230.374 106.369 230.374 116.984V544.705C230.374 555.32 221.789 563.922 211.205 563.922H37.1572C26.5769 563.922 17.9941 555.327 17.9876 544.717L17.7244 117.284C17.7178 106.665 26.3045 98.0561 36.894 98.0561H59.6444C60.9995 98.0561 62.102 99.1579 62.102 100.522Z" stroke="#CCCCCC" stroke-width="2"/>
</g>
<path d="M101 0H348V2H101V0Z" fill="#CCCCCC"/>
<rect x="211" y="578" width="137" height="2" fill="#CCCCCC"/>
<rect x="96.2954" y="6.64136" width="2.21369" height="75.2654" fill="#CCCCCC"/>
<rect x="348" y="18" width="2.00001" height="252" transform="rotate(90 348 18)" fill="#CCCCCC"/>
<path fill-rule="evenodd" clip-rule="evenodd" d="M153.851 16.6027C157.518 16.6027 160.492 13.6294 160.492 9.96162C160.492 6.29386 157.518 3.32056 153.851 3.32056C150.183 3.32056 147.209 6.29386 147.209 9.96162C147.209 13.6294 150.183 16.6027 153.851 16.6027Z" fill="#CCCCCC"/>
<path fill-rule="evenodd" clip-rule="evenodd" d="M133.928 16.6027C137.596 16.6027 140.569 13.6294 140.569 9.96162C140.569 6.29386 137.596 3.32056 133.928 3.32056C130.26 3.32056 127.287 6.29386 127.287 9.96162C127.287 13.6294 130.26 16.6027 133.928 16.6027Z" fill="#CCCCCC"/>
<path fill-rule="evenodd" clip-rule="evenodd" d="M114.005 16.6027C117.673 16.6027 120.646 13.6294 120.646 9.96162C120.646 6.29386 117.673 3.32056 114.005 3.32056C110.337 3.32056 107.364 6.29386 107.364 9.96162C107.364 13.6294 110.337 16.6027 114.005 16.6027Z" fill="#CCCCCC"/>
<path d="M139.462 4.24914e-06V2.21369C139.462 2.21369 106.257 2.21369 103.49 2.21369C100.723 2.2137 98.5088 4.42739 98.5091 7.19449C98.5094 9.9616 98.5091 83.0134 98.5091 83.0134H96.2954C96.2954 83.0134 96.2957 7.74791 96.2954 7.19449C96.2951 6.64108 96.2951 4.98081 97.9554 2.76712C99.6158 0.553434 102.383 1.2034e-05 103.49 3.58941e-06C104.597 -4.85514e-06 139.462 4.24914e-06 139.462 4.24914e-06Z" fill="#CCCCCC"/>
<defs>
<clipPath id="clip0">
<rect width="248.951" height="499.056" fill="white" transform="translate(0 81.1719)"/>
</clipPath>
</defs>
</svg>
