<svg width="268" height="930" viewBox="0 0 268 930" fill="none" xmlns="http://www.w3.org/2000/svg">
<g clip-path="url(#clip0)">
<path fill-rule="evenodd" clip-rule="evenodd" d="M211.974 289.325C213.143 289.325 214.091 292.415 214.091 296.227V381.023C214.091 384.834 213.143 387.925 211.974 387.925H210.764C210.764 382.738 210.744 294.395 210.764 289.325H211.974Z" fill="#CCCCCC"/>
<path d="M-210.879 107.81C-210.879 83.0372 -205.111 64.8909 -193.248 52.9273C-181.386 40.9653 -163.25 35 -138.099 35H137.328C162.479 35 180.616 40.9653 192.477 52.9273C204.34 64.8909 210.109 83.0372 210.109 107.81V821.19C210.109 845.091 203.94 863.251 191.859 875.438C179.778 887.625 161.629 894 137.328 894H-138.099C-163.25 894 -181.386 888.035 -193.248 876.073C-205.111 864.109 -210.879 845.963 -210.879 821.19V107.81Z" stroke="#CCCCCC" stroke-width="2"/>
<path d="M-206.21 108.086C-206.21 84.3701 -200.848 67.3285 -189.738 56.2019C-178.628 45.0756 -161.58 39.6719 -137.768 39.6719H137.663C161.474 39.6719 178.523 45.0756 189.632 56.2019C200.742 67.3285 206.104 84.3701 206.104 108.086V820.914C206.104 843.762 200.34 860.818 189.01 872.168C177.679 883.518 160.617 889.328 137.663 889.328H-137.768C-161.58 889.328 -178.628 883.924 -189.738 872.798C-200.848 861.671 -206.21 844.63 -206.21 820.914V108.086Z" stroke="#CCCCCC" stroke-width="2"/>
<path fill-rule="evenodd" clip-rule="evenodd" d="M44.8322 72.7007C48.1484 72.7007 50.8368 70.0113 50.8368 66.6937C50.8368 63.3762 48.1484 60.6868 44.8322 60.6868C41.516 60.6868 38.8276 63.3762 38.8276 66.6937C38.8276 70.0113 41.516 72.7007 44.8322 72.7007Z" fill="#CCCCCC"/>
<path d="M-27.0732 66.7974C-27.0732 64.9029 -25.5375 63.3672 -23.643 63.3672H22.2355C24.13 63.3672 25.6657 64.9029 25.6657 66.7974C25.6657 68.6918 24.13 70.2276 22.2355 70.2276H-23.643C-25.5375 70.2276 -27.0732 68.6918 -27.0732 66.7974Z" fill="#CCCCCC"/>
<rect x="-64" y="853" width="128" height="4" rx="2" fill="#CCCCCC"/>
<path d="M-103.932 65.8969C-103.932 70.4692 -102.246 75.5598 -98.6283 79.4981C-95.0298 83.4154 -89.47 86.2478 -81.5988 86.2478H80.4012C96.0445 86.2478 102.735 75.0222 102.735 66.2305V66.1998C102.735 65.066 102.735 63.8782 102.861 62.761C102.988 61.6301 103.252 60.4984 103.825 59.4967C105.034 57.3851 107.384 56.2231 111.401 56.2231H143.735C157.448 56.2231 168.558 60.3695 176.242 68.0593C183.925 75.7491 188.068 86.8683 188.068 100.592V825.854C188.068 839.578 183.925 850.697 176.242 858.387C168.558 866.077 157.448 870.223 143.735 870.223H-144.599C-158.312 870.223 -169.423 866.077 -177.106 858.387C-184.789 850.697 -188.932 839.578 -188.932 825.854V100.592C-188.932 86.8683 -184.789 75.7491 -177.106 68.0593C-169.423 60.3695 -158.312 56.2231 -144.599 56.2231H-112.599C-108.582 56.2231 -106.238 57.3839 -105.028 59.4456C-103.931 61.3148 -103.931 63.7191 -103.932 65.7526L-103.932 65.8969Z" stroke="#CCCCCC" stroke-width="2"/>
</g>
<defs>
<clipPath id="clip0">
<rect width="268" height="930" fill="white"/>
</clipPath>
</defs>
</svg>
