<svg width="268" height="368" viewBox="0 0 268 368" fill="none" xmlns="http://www.w3.org/2000/svg">
<g clip-path="url(#clip0)">
<path d="M-210.879 -454.19C-210.879 -478.963 -205.111 -497.109 -193.248 -509.073C-181.386 -521.035 -163.25 -527 -138.099 -527H137.328C162.479 -527 180.616 -521.035 192.477 -509.073C204.34 -497.109 210.109 -478.963 210.109 -454.19V259.19C210.109 283.091 203.94 301.251 191.859 313.438C179.778 325.625 161.629 332 137.328 332H-138.099C-163.25 332 -181.386 326.035 -193.248 314.073C-205.111 302.109 -210.879 283.963 -210.879 259.19V-454.19Z" stroke="#CCCCCC" stroke-width="2"/>
<path d="M-206.21 -453.914C-206.21 -477.63 -200.848 -494.671 -189.738 -505.798C-178.628 -516.924 -161.58 -522.328 -137.768 -522.328H137.663C161.474 -522.328 178.523 -516.924 189.632 -505.798C200.742 -494.671 206.104 -477.63 206.104 -453.914V258.914C206.104 281.762 200.34 298.818 189.01 310.168C177.679 321.518 160.617 327.328 137.663 327.328H-137.768C-161.58 327.328 -178.628 321.924 -189.738 310.798C-200.848 299.671 -206.21 282.63 -206.21 258.914V-453.914Z" stroke="#CCCCCC" stroke-width="2"/>
<rect x="-64" y="291" width="128" height="4" rx="2" fill="#CCCCCC"/>
<path d="M-103.932 -496.103C-103.932 -491.531 -102.246 -486.44 -98.6283 -482.502C-95.0298 -478.585 -89.47 -475.752 -81.5988 -475.752H80.4012C96.0445 -475.752 102.735 -486.978 102.735 -495.769V-495.8C102.735 -496.934 102.735 -498.122 102.861 -499.239C102.988 -500.37 103.252 -501.502 103.825 -502.503C105.034 -504.615 107.384 -505.777 111.401 -505.777H143.735C157.448 -505.777 168.558 -501.63 176.242 -493.941C183.925 -486.251 188.068 -475.132 188.068 -461.408V263.854C188.068 277.578 183.925 288.697 176.242 296.387C168.558 304.077 157.448 308.223 143.735 308.223H-144.599C-158.312 308.223 -169.423 304.077 -177.106 296.387C-184.789 288.697 -188.932 277.578 -188.932 263.854V-461.408C-188.932 -475.132 -184.789 -486.251 -177.106 -493.941C-169.423 -501.63 -158.312 -505.777 -144.599 -505.777H-112.599C-108.582 -505.777 -106.238 -504.616 -105.028 -502.554C-103.931 -500.685 -103.931 -498.281 -103.932 -496.247L-103.932 -496.103Z" stroke="#CCCCCC" stroke-width="2"/>
</g>
<defs>
<clipPath id="clip0">
<rect width="268" height="368" fill="white"/>
</clipPath>
</defs>
</svg>
