<svg width="204" height="524" viewBox="0 0 204 524" fill="none" xmlns="http://www.w3.org/2000/svg">
<g clip-path="url(#clip0)">
<path d="M39.9677 1H845.032C866.547 1 884 18.5576 884 40.2299V584.77C884 606.442 866.547 624 845.032 624H39.9678C18.4526 624 1 606.442 1 584.77V40.2299C1 18.5577 18.4526 1 39.9677 1Z" stroke="#CCCCCC" stroke-width="2"/>
<path d="M56.0966 312.5C56.0966 323.063 47.5911 331.615 37.1128 331.615C26.6344 331.615 18.1289 323.063 18.1289 312.5C18.1289 301.937 26.6344 293.385 37.1128 293.385C47.5911 293.385 56.0966 301.937 56.0966 312.5Z" stroke="#CCCCCC" stroke-width="2"/>
<path d="M77.0806 35.6379H76.0806V36.6379V588.362V589.362H77.0806H807.919H808.919V588.362V36.6379V35.6379H807.919H77.0806Z" stroke="#CCCCCC" stroke-width="2"/>
</g>
<defs>
<clipPath id="clip0">
<rect width="204" height="524" fill="white"/>
</clipPath>
</defs>
</svg>
