<svg width="476" height="581" viewBox="0 0 476 581" fill="none" xmlns="http://www.w3.org/2000/svg">
<g clip-path="url(#clip0)">
<path d="M42.0682 82.1719H206.883C228.607 82.1719 246.222 99.8244 246.222 121.605V539.796C246.222 561.576 228.607 579.228 206.883 579.228H42.0682C20.344 579.228 2.729 561.576 2.729 539.796V121.605C2.729 99.8244 20.344 82.1719 42.0682 82.1719Z" stroke="#999999" stroke-width="2"/>
<rect width="31.1188" height="4.04328" rx="2.02164" transform="matrix(1 0 0 -1 109.492 103.121)" fill="#999999"/>
<ellipse cx="150.984" cy="100.811" rx="1.81982" ry="1.82404" fill="#999999"/>
<path d="M153.442 100.811C153.442 102.175 152.339 103.277 150.984 103.277C149.629 103.277 148.526 102.175 148.526 100.811C148.526 99.4469 149.629 98.3452 150.984 98.3452C152.339 98.3452 153.442 99.4469 153.442 100.811Z" stroke="#999999" stroke-width="2"/>
<path d="M0 150.485C0 149.528 0.774021 148.752 1.72882 148.752V168.391C0.774021 168.391 0 167.615 0 166.658V150.485Z" fill="#999999"/>
<path d="M0 185.72C0 184.763 0.774021 183.987 1.72882 183.987V220.376C0.774021 220.376 0 219.601 0 218.644V185.72Z" fill="#999999"/>
<path d="M248.951 252.145C248.951 253.102 248.176 253.878 247.222 253.878L247.222 196.117C248.177 196.117 248.951 196.893 248.951 197.85L248.951 252.145Z" fill="#999999"/>
<path d="M0 231.351C0 230.394 0.774021 229.618 1.72882 229.618V266.008C0.774021 266.008 0 265.232 0 264.275V231.351Z" fill="#999999"/>
<rect x="87.0176" y="555.391" width="73.7631" height="2.31042" rx="1.15521" fill="#999999"/>
<path d="M62.1022 100.522V101.1C62.1022 108.668 68.2239 114.807 75.7803 114.807H172.883C180.439 114.807 186.561 108.668 186.561 101.1V100.233C186.561 98.8693 187.663 97.7676 189.018 97.7676H211.205C221.79 97.7676 230.374 106.369 230.374 116.984V544.705C230.374 555.32 221.79 563.922 211.205 563.922H37.1574C26.5772 563.922 17.9944 555.328 17.9878 544.717L17.7246 117.285C17.7181 106.665 26.3047 98.0564 36.8942 98.0564H59.6446C60.9997 98.0564 62.1022 99.1581 62.1022 100.522Z" stroke="#999999" stroke-width="2"/>
</g>
<path d="M113.714 0H476V1.6L100 2L113.714 0Z" fill="#999999"/>
<rect x="202" y="578" width="274" height="2" fill="#999999"/>
<rect x="96.2954" y="6.64111" width="2.21369" height="75.2654" fill="#999999"/>
<path d="M476 18L476 20L97 20L97 18L476 18Z" fill="#999999"/>
<path fill-rule="evenodd" clip-rule="evenodd" d="M153.851 16.6024C157.518 16.6024 160.492 13.6291 160.492 9.96138C160.492 6.29362 157.518 3.32031 153.851 3.32031C150.183 3.32031 147.209 6.29362 147.209 9.96138C147.209 13.6291 150.183 16.6024 153.851 16.6024Z" fill="#999999"/>
<path fill-rule="evenodd" clip-rule="evenodd" d="M133.928 16.6024C137.596 16.6024 140.569 13.6291 140.569 9.96138C140.569 6.29362 137.596 3.32031 133.928 3.32031C130.26 3.32031 127.287 6.29362 127.287 9.96138C127.287 13.6291 130.26 16.6024 133.928 16.6024Z" fill="#999999"/>
<path fill-rule="evenodd" clip-rule="evenodd" d="M114.005 16.6024C117.673 16.6024 120.646 13.6291 120.646 9.96138C120.646 6.29362 117.673 3.32031 114.005 3.32031C110.337 3.32031 107.364 6.29362 107.364 9.96138C107.364 13.6291 110.337 16.6024 114.005 16.6024Z" fill="#999999"/>
<path d="M139.462 4.24914e-06V2.21369C139.462 2.21369 106.257 2.21369 103.49 2.21369C100.723 2.2137 98.5088 4.42739 98.5091 7.19449C98.5094 9.9616 98.5091 83.0134 98.5091 83.0134H96.2954C96.2954 83.0134 96.2957 7.74791 96.2954 7.19449C96.2951 6.64108 96.2951 4.98081 97.9554 2.76712C99.6158 0.553434 102.383 1.2034e-05 103.49 3.58941e-06C104.597 -4.85514e-06 139.462 4.24914e-06 139.462 4.24914e-06Z" fill="#999999"/>
<defs>
<clipPath id="clip0">
<rect width="248.951" height="499.056" fill="white" transform="translate(0 81.1719)"/>
</clipPath>
</defs>
</svg>
