<svg width="1198" height="218" viewBox="0 0 1198 218" fill="none" xmlns="http://www.w3.org/2000/svg">
<g filter="url(#filter0_d)">
<path fill-rule="evenodd" clip-rule="evenodd" d="M0 60.92L49.9167 53.44C99.8333 45.96 199.667 31 299.5 38.48C399.333 45.96 499.167 75.88 599 72.14C698.833 68.4 798.667 31 898.5 31C998.333 31 1098.17 68.4 1148.08 87.1L1198 105.8V218H1148.08C1098.17 218 998.333 218 898.5 218C798.667 218 698.833 218 599 218C499.167 218 399.333 218 299.5 218C199.667 218 99.8333 218 49.9167 218H0V60.92Z" fill="#212529"/>
</g>
<defs>
<filter id="filter0_d" x="-19" y="0" width="1236" height="225" filterUnits="userSpaceOnUse" color-interpolation-filters="sRGB">
<feFlood flood-opacity="0" result="BackgroundImageFix"/>
<feColorMatrix in="SourceAlpha" type="matrix" values="0 0 0 0 0 0 0 0 0 0 0 0 0 0 0 0 0 0 127 0" result="hardAlpha"/>
<feOffset dy="-12"/>
<feGaussianBlur stdDeviation="9.5"/>
<feComposite in2="hardAlpha" operator="out"/>
<feColorMatrix type="matrix" values="0 0 0 0 0 0 0 0 0 0 0 0 0 0 0 0 0 0 0.2 0"/>
<feBlend mode="normal" in2="BackgroundImageFix" result="effect1_dropShadow"/>
<feBlend mode="normal" in="SourceGraphic" in2="effect1_dropShadow" result="shape"/>
</filter>
</defs>
</svg>
