<svg width="179" height="621" viewBox="0 0 179 621" fill="none" xmlns="http://www.w3.org/2000/svg">
<g clip-path="url(#clip0)">
<path fill-rule="evenodd" clip-rule="evenodd" d="M141.973 193.513C142.756 193.513 143.391 195.577 143.391 198.123V254.751C143.391 257.297 142.756 259.361 141.973 259.361H141.162C141.162 255.897 141.149 196.899 141.162 193.513H141.973Z" fill="#CCCCCC"/>
<path d="M-140.91 72.2921C-140.91 55.7944 -137.056 43.7779 -129.197 35.8751C-121.339 27.9733 -109.293 24 -92.4936 24H91.978C108.778 24 120.824 27.9733 128.682 35.8751C136.541 43.7779 140.394 55.7944 140.394 72.2921V548.708C140.394 564.615 136.277 576.645 128.267 584.701C120.258 592.757 108.2 597 91.978 597H-92.4936C-109.293 597 -121.339 593.027 -129.197 585.125C-137.056 577.222 -140.91 565.206 -140.91 548.708V72.2921Z" stroke="#CCCCCC" stroke-width="2"/>
<path d="M-137.783 72.4767C-137.783 56.6821 -134.2 45.4054 -126.848 38.0629C-119.495 30.7201 -108.179 27.1201 -92.2727 27.1201H92.202C108.108 27.1201 119.424 30.7201 126.777 38.0629C134.129 45.4054 137.712 56.6821 137.712 72.4767V548.523C137.712 563.729 133.865 575.021 126.36 582.517C118.855 590.013 107.525 593.88 92.202 593.88H-92.2727C-108.179 593.88 -119.495 590.28 -126.848 582.937C-134.2 575.595 -137.783 564.318 -137.783 548.523V72.4767Z" stroke="#CCCCCC" stroke-width="2"/>
<path fill-rule="evenodd" clip-rule="evenodd" d="M30.027 48.8455C32.2481 48.8455 34.0487 47.0495 34.0487 44.8339C34.0487 42.6183 32.2481 40.8223 30.027 40.8223C27.8059 40.8223 26.0054 42.6183 26.0054 44.8339C26.0054 47.0495 27.8059 48.8455 30.027 48.8455Z" fill="#CCCCCC"/>
<path d="M-18.1328 44.9031C-18.1328 43.6379 -17.1042 42.6123 -15.8354 42.6123H14.8926C16.1614 42.6123 17.19 43.6379 17.19 44.9031C17.19 46.1683 16.1614 47.1939 14.8926 47.1939H-15.8354C-17.1042 47.1939 -18.1328 46.1683 -18.1328 44.9031Z" fill="#CCCCCC"/>
<rect x="-42.8652" y="569.951" width="85.7302" height="2.67126" rx="1.33563" fill="#CCCCCC"/>
<path d="M-69.2806 44.3014C-69.2806 47.2774 -68.1786 50.5946 -65.8162 53.1588C-63.473 55.7023 -59.8393 57.5601 -54.6527 57.5601H53.8496C64.1244 57.5601 68.4776 50.2331 68.4776 44.5242V44.4948C68.4775 43.7438 68.4775 42.9345 68.5641 42.1695C68.6523 41.3908 68.8366 40.5849 69.2522 39.861C70.1451 38.3057 71.862 37.5088 74.6124 37.5088H96.2682C105.519 37.5088 113.052 40.299 118.273 45.5097C123.495 50.7207 126.292 58.2388 126.292 67.4718V551.822C126.292 561.055 123.495 568.573 118.273 573.784C113.052 578.995 105.519 581.785 96.2682 581.785H-96.848C-106.099 581.785 -113.631 578.995 -118.853 573.784C-124.075 568.573 -126.871 561.055 -126.871 551.822V67.4718C-126.871 58.2388 -124.075 50.7207 -118.853 45.5097C-113.631 40.299 -106.099 37.5088 -96.848 37.5088H-75.4155C-72.6659 37.5088 -70.9552 38.3045 -70.0607 39.8237C-69.2786 41.1521 -69.2797 42.8397 -69.2805 44.1718L-69.2806 44.3014Z" stroke="#CCCCCC" stroke-width="2"/>
</g>
<defs>
<clipPath id="clip0">
<rect width="179" height="621" fill="white"/>
</clipPath>
</defs>
</svg>
