<svg width="1198" height="358" viewBox="0 0 1198 358" fill="none" xmlns="http://www.w3.org/2000/svg">
<g clip-path="url(#clip0)">
<g filter="url(#filter0_d)">
<path fill-rule="evenodd" clip-rule="evenodd" d="M0 106L49.9167 94C99.8333 82 199.667 58 299.5 70C399.333 82 499.167 130 599 124C698.833 118 798.667 58 898.5 58C998.333 58 1098.17 118 1148.08 148L1198 178V358H1148.08C1098.17 358 998.333 358 898.5 358C798.667 358 698.833 358 599 358C499.167 358 399.333 358 299.5 358C199.667 358 99.8333 358 49.9167 358H0V106Z" fill="#212529"/>
</g>
</g>
<defs>
<filter id="filter0_d" x="-19" y="27" width="1236" height="338" filterUnits="userSpaceOnUse" color-interpolation-filters="sRGB">
<feFlood flood-opacity="0" result="BackgroundImageFix"/>
<feColorMatrix in="SourceAlpha" type="matrix" values="0 0 0 0 0 0 0 0 0 0 0 0 0 0 0 0 0 0 127 0" result="hardAlpha"/>
<feOffset dy="-12"/>
<feGaussianBlur stdDeviation="9.5"/>
<feComposite in2="hardAlpha" operator="out"/>
<feColorMatrix type="matrix" values="0 0 0 0 0 0 0 0 0 0 0 0 0 0 0 0 0 0 0.2 0"/>
<feBlend mode="normal" in2="BackgroundImageFix" result="effect1_dropShadow"/>
<feBlend mode="normal" in="SourceGraphic" in2="effect1_dropShadow" result="shape"/>
</filter>
<clipPath id="clip0">
<rect width="1198" height="358" fill="white"/>
</clipPath>
</defs>
</svg>
